<?xml version="1.0" encoding="UTF-8"?>
<!DOCTYPE svg PUBLIC "-//W3C//DTD SVG 1.1//EN" "http://www.w3.org/Graphics/SVG/1.1/DTD/svg11.dtd">
<svg xmlns="http://www.w3.org/2000/svg" version="1.1" width="500px" height="328px" style="shape-rendering:geometricPrecision; text-rendering:geometricPrecision; image-rendering:optimizeQuality; fill-rule:evenodd; clip-rule:evenodd" xmlns:xlink="http://www.w3.org/1999/xlink">
<g><path style="opacity:0.911" fill="#4d4d64" d="M 148.5,-0.5 C 156.5,-0.5 164.5,-0.5 172.5,-0.5C 198.182,0.993378 222.849,7.16004 246.5,18C 258.789,24.9782 271.456,31.1448 284.5,36.5C 333.739,27.369 383.406,23.369 433.5,24.5C 449.533,24.3904 465.533,24.8904 481.5,26C 486.372,27.1029 491.038,28.7696 495.5,31C 497.125,33.0948 498.458,35.2615 499.5,37.5C 499.5,39.5 499.5,41.5 499.5,43.5C 496.656,50.5438 492.323,56.7105 486.5,62C 465.387,81.0917 442.054,97.0917 416.5,110C 405.619,114.553 394.286,117.22 382.5,118C 384.581,122.601 384.081,127.101 381,131.5C 373.947,140.717 365.447,148.384 355.5,154.5C 354.63,149.841 353.797,145.175 353,140.5C 348.568,145.44 343.735,149.773 338.5,153.5C 350.416,156.183 362.083,159.683 373.5,164C 379.77,168.709 381.936,174.876 380,182.5C 360.657,210.78 333.824,227.28 299.5,232C 263.238,235.124 228.904,228.457 196.5,212C 185.647,211.201 174.814,210.368 164,209.5C 163.228,209.645 162.561,209.978 162,210.5C 156.384,226.143 155.05,242.143 158,258.5C 163.041,240.3 174.208,227.634 191.5,220.5C 191.833,221 192.167,221.5 192.5,222C 188.677,229.138 185.843,236.638 184,244.5C 183.333,250.167 183.333,255.833 184,261.5C 185.216,267.464 186.216,273.464 187,279.5C 206.093,295.304 226.927,308.47 249.5,319C 252.833,321 256.167,323 259.5,325C 260.252,325.671 260.586,326.504 260.5,327.5C 260.167,327.5 259.833,327.5 259.5,327.5C 210.569,323.435 167.903,304.935 131.5,272C 109.178,251.177 97.1776,225.344 95.5,194.5C 80.9342,188.884 66.6008,182.717 52.5,176C 34.4393,165.312 16.7727,154.145 -0.5,142.5C -0.5,141.833 -0.5,141.167 -0.5,140.5C 33.0316,148.608 67.0316,153.608 101.5,155.5C 102.167,155.167 102.833,154.833 103.5,154.5C 113.205,127.903 129.539,106.403 152.5,90C 168.586,77.161 177.586,60.4943 179.5,40C 179.172,29.3445 174.839,20.6778 166.5,14C 158.532,9.68122 150.532,5.34789 142.5,1C 144.708,0.809116 146.708,0.309116 148.5,-0.5 Z M 338.5,153.5 C 340.933,157.768 344.266,161.268 348.5,164C 344.459,164.173 340.459,164.673 336.5,165.5C 337.804,167.016 337.304,167.682 335,167.5C 329.149,166.235 323.315,165.902 317.5,166.5C 318.648,168.149 319.981,169.649 321.5,171C 316.28,169.525 310.947,168.025 305.5,166.5C 304.287,166.747 303.62,167.414 303.5,168.5C 301.375,165.912 300.042,162.912 299.5,159.5C 298.325,159.281 297.325,159.614 296.5,160.5C 293.08,164.579 290.08,168.912 287.5,173.5C 286.573,171.887 285.739,170.221 285,168.5C 284.611,163.944 283.445,159.61 281.5,155.5C 283.985,147.879 287.152,140.545 291,133.5C 292.039,141.795 292.872,150.129 293.5,158.5C 299.531,152.635 305.031,146.302 310,139.5C 310.031,145.859 309.531,152.192 308.5,158.5C 316.956,153.564 324.456,147.231 331,139.5C 331.23,145.575 331.397,151.575 331.5,157.5C 333.725,155.89 336.059,154.557 338.5,153.5 Z"/></g>
<g><path style="opacity:1" fill="#0a95d5" d="M 183.5,70.5 C 180.58,71.8779 177.746,73.5446 175,75.5C 176.656,70.4978 178.656,65.4978 181,60.5C 191.17,37.3028 185.67,19.1361 164.5,6C 181.133,5.47122 197.467,7.47122 213.5,12C 235.126,19.1453 255.793,28.4786 275.5,40C 244.131,48.1918 213.464,58.3585 183.5,70.5 Z"/></g>
<g><path style="opacity:1" fill="#99d9f0" d="M 209.5,57.5 C 200.563,61.3016 191.897,65.635 183.5,70.5C 182.624,70.6309 181.957,70.2975 181.5,69.5C 195.081,53.5984 197.081,36.2651 187.5,17.5C 207.166,17.7092 224.333,24.3758 239,37.5C 240.833,40.5 242.667,43.5 244.5,46.5C 233.112,50.2964 221.778,54.2964 210.5,58.5C 209.893,58.3764 209.56,58.0431 209.5,57.5 Z"/></g>
<g><path style="opacity:1" fill="#0694d5" d="M 353.5,191.5 C 360.879,188.804 367.879,185.637 374.5,182C 350.339,212.746 318.673,227.913 279.5,227.5C 250.412,226.895 223.079,219.728 197.5,206C 134.181,205.445 76.5142,187.445 24.5,152C 62.4228,159.903 100.756,162.237 139.5,159C 138.437,157.812 137.103,157.312 135.5,157.5C 146.08,139.086 160.747,124.919 179.5,115C 192.285,109.258 205.619,107.091 219.5,108.5C 213.847,113.504 210.014,119.504 208,126.5C 227.692,106.236 251.526,93.7359 279.5,89C 276.481,84.5741 272.314,82.7408 267,83.5C 259.765,84.6018 252.599,85.9352 245.5,87.5C 244.813,79.0413 247.813,72.208 254.5,67C 256.849,64.6299 259.515,64.1299 262.5,65.5C 257.473,71.9208 258.806,76.0874 266.5,78C 286.195,78.1067 305.862,77.9401 325.5,77.5C 347.068,80.5935 368.735,81.7602 390.5,81C 400.598,79.9806 410.598,78.314 420.5,76C 441.756,67.8718 462.09,57.8718 481.5,46C 485.659,42.8015 485.325,40.1348 480.5,38C 476.781,37.6116 473.114,36.9449 469.5,36C 421.068,36.204 372.735,38.5373 324.5,43C 318.254,43.4947 317.254,45.8281 321.5,50C 332.584,55.5829 343.917,60.5829 355.5,65C 346.88,67.1536 338.213,68.987 329.5,70.5C 334.894,68.2262 340.56,66.3929 346.5,65C 327.15,59.9397 307.817,54.773 288.5,49.5C 287.833,49.6667 287.167,49.8333 286.5,50C 287.737,50.2321 288.737,50.7321 289.5,51.5C 284.298,52.7678 279.631,55.1012 275.5,58.5C 274.77,57.0663 273.77,55.8996 272.5,55C 229.972,59.3961 191.639,74.3961 157.5,100C 138.012,115.973 123.345,135.473 113.5,158.5C 111.833,158.5 110.167,158.5 108.5,158.5C 116.667,134.35 130.667,114.184 150.5,98C 199.659,65.274 253.659,44.9406 312.5,37C 363.964,30.4251 415.631,28.0917 467.5,30C 474.673,30.5002 481.673,31.8336 488.5,34C 493.143,36.0724 494.643,39.5724 493,44.5C 487.915,52.2548 481.748,59.0881 474.5,65C 452.848,83.9978 428.515,98.6645 401.5,109C 388.937,113.231 376.271,113.564 363.5,110C 332.289,97.4235 299.956,92.7569 266.5,96C 245.256,100.282 228.256,111.116 215.5,128.5C 215.833,128.833 216.167,129.167 216.5,129.5C 220.278,126.526 224.445,124.193 229,122.5C 229.5,122.833 230,123.167 230.5,123.5C 221.285,141.965 218.951,161.298 223.5,181.5C 199.831,187.083 183.998,178.417 176,155.5C 174.206,146.592 173.206,137.592 173,128.5C 168.632,146.66 171.965,163.327 183,178.5C 195.972,193.402 212.139,202.735 231.5,206.5C 228.774,190.62 227.941,174.62 229,158.5C 230.794,138.408 239.294,121.908 254.5,109C 262.079,103.696 270.413,100.696 279.5,100C 262.575,111.576 251.075,127.076 245,146.5C 241.796,177.916 255.63,197.083 286.5,204C 310.211,206.312 332.544,202.146 353.5,191.5 Z"/></g>
<g><path style="opacity:1" fill="#99d9f0" d="M 135.5,157.5 C 132.287,157.81 129.287,157.477 126.5,156.5C 141.602,123.227 167.268,104.394 203.5,100C 212.5,99.6667 221.5,99.3333 230.5,99C 233.167,96.3333 235.833,93.6667 238.5,91C 208.079,88.3693 180.412,95.7026 155.5,113C 141.772,125.308 131.105,139.808 123.5,156.5C 120.316,157.323 116.983,157.99 113.5,158.5C 123.345,135.473 138.012,115.973 157.5,100C 191.639,74.3961 229.972,59.3961 272.5,55C 273.77,55.8996 274.77,57.0663 275.5,58.5C 279.631,55.1012 284.298,52.7678 289.5,51.5C 289.833,51.5 290.167,51.5 290.5,51.5C 292.835,54.1648 295.835,55.4982 299.5,55.5C 300.167,55.8333 300.833,56.1667 301.5,56.5C 298.5,58.8333 295.833,61.5 293.5,64.5C 290.083,66.8913 288.75,70.2246 289.5,74.5C 285.107,74.4568 284.774,74.9568 288.5,76C 293.352,76.8151 298.019,76.6484 302.5,75.5C 303.167,75.5 303.833,75.5 304.5,75.5C 312.804,73.674 321.137,72.0073 329.5,70.5C 338.213,68.987 346.88,67.1536 355.5,65C 343.917,60.5829 332.584,55.5829 321.5,50C 317.254,45.8281 318.254,43.4947 324.5,43C 372.735,38.5373 421.068,36.204 469.5,36C 473.114,36.9449 476.781,37.6116 480.5,38C 485.325,40.1348 485.659,42.8015 481.5,46C 462.09,57.8718 441.756,67.8718 420.5,76C 410.598,78.314 400.598,79.9806 390.5,81C 368.735,81.7602 347.068,80.5935 325.5,77.5C 305.862,77.9401 286.195,78.1067 266.5,78C 258.806,76.0874 257.473,71.9208 262.5,65.5C 259.515,64.1299 256.849,64.6299 254.5,67C 247.813,72.208 244.813,79.0413 245.5,87.5C 252.599,85.9352 259.765,84.6018 267,83.5C 272.314,82.7408 276.481,84.5741 279.5,89C 251.526,93.7359 227.692,106.236 208,126.5C 210.014,119.504 213.847,113.504 219.5,108.5C 205.619,107.091 192.285,109.258 179.5,115C 160.747,124.919 146.08,139.086 135.5,157.5 Z"/></g>
<g><path style="opacity:1" fill="#29a2dc" d="M 209.5,57.5 C 210.509,52.2039 210.676,46.8706 210,41.5C 208.757,38.117 207.757,34.7837 207,31.5C 212.794,39.8812 213.627,48.5478 209.5,57.5 Z"/></g>
<g><path style="opacity:1" fill="#1d94ce" d="M 290.5,51.5 C 293.912,52.0421 296.912,53.3754 299.5,55.5C 295.835,55.4982 292.835,54.1648 290.5,51.5 Z"/></g>
<g><path style="opacity:1" fill="#4b4d65" d="M 329.5,70.5 C 321.137,72.0073 312.804,73.674 304.5,75.5C 304.5,75.1667 304.5,74.8333 304.5,74.5C 309.822,74.0921 313.989,71.7588 317,67.5C 318.121,62.7897 316.288,60.123 311.5,59.5C 308.495,57.7234 305.162,56.7234 301.5,56.5C 300.833,56.1667 300.167,55.8333 299.5,55.5C 296.912,53.3754 293.912,52.0421 290.5,51.5C 290.167,51.5 289.833,51.5 289.5,51.5C 288.737,50.7321 287.737,50.2321 286.5,50C 287.167,49.8333 287.833,49.6667 288.5,49.5C 307.817,54.773 327.15,59.9397 346.5,65C 340.56,66.3929 334.894,68.2262 329.5,70.5 Z"/></g>
<g><path style="opacity:1" fill="#f8f8f9" d="M 301.5,56.5 C 305.162,56.7234 308.495,57.7234 311.5,59.5C 306.77,63.2972 304.437,68.2972 304.5,74.5C 304.5,74.8333 304.5,75.1667 304.5,75.5C 303.833,75.5 303.167,75.5 302.5,75.5C 298.5,75.5 294.5,75.5 290.5,75.5C 290.624,71.5876 291.624,67.9209 293.5,64.5C 295.833,61.5 298.5,58.8333 301.5,56.5 Z"/></g>
<g><path style="opacity:1" fill="#0d0d0f" d="M 311.5,59.5 C 316.288,60.123 318.121,62.7897 317,67.5C 313.989,71.7588 309.822,74.0921 304.5,74.5C 304.437,68.2972 306.77,63.2972 311.5,59.5 Z"/></g>
<g><path style="opacity:1" fill="#4e8bb0" d="M 293.5,64.5 C 291.624,67.9209 290.624,71.5876 290.5,75.5C 294.5,75.5 298.5,75.5 302.5,75.5C 298.019,76.6484 293.352,76.8151 288.5,76C 284.774,74.9568 285.107,74.4568 289.5,74.5C 288.75,70.2246 290.083,66.8913 293.5,64.5 Z"/></g>
<g><path style="opacity:1" fill="#0f99d9" d="M 126.5,156.5 C 125.5,156.5 124.5,156.5 123.5,156.5C 131.105,139.808 141.772,125.308 155.5,113C 180.412,95.7026 208.079,88.3693 238.5,91C 235.833,93.6667 233.167,96.3333 230.5,99C 221.5,99.3333 212.5,99.6667 203.5,100C 167.268,104.394 141.602,123.227 126.5,156.5 Z"/></g>
<g><path style="opacity:1" fill="#fcfcfc" d="M 299.5,143.5 C 298.833,139.5 298.167,135.5 297.5,131.5C 297.636,126.016 296.803,120.682 295,115.5C 288.202,124.761 282.702,134.761 278.5,145.5C 273.032,134.459 270.865,122.793 272,110.5C 281.909,99.8376 294.076,96.3376 308.5,100C 331.62,104.04 353.953,110.707 375.5,120C 376.899,121.062 377.899,122.395 378.5,124C 373.769,132.067 367.603,138.901 360,144.5C 359.986,138.253 358.986,132.253 357,126.5C 352.021,133.979 345.855,140.312 338.5,145.5C 337.833,138.167 337.167,130.833 336.5,123.5C 331.23,131.605 324.73,138.605 317,144.5C 316.94,136.064 316.273,127.731 315,119.5C 311.069,128.379 305.902,136.379 299.5,143.5 Z"/></g>
<g><path style="opacity:1" fill="#9494a2" d="M 297.5,131.5 C 298.167,135.5 298.833,139.5 299.5,143.5C 299.44,144.043 299.107,144.376 298.5,144.5C 297.508,140.217 297.174,135.884 297.5,131.5 Z"/></g>
<g><path style="opacity:1" fill="#f9f9fa" d="M 353.5,191.5 C 319.838,205.459 287.504,202.959 256.5,184C 252.001,179.834 249.501,174.667 249,168.5C 248.333,163.5 248.333,158.5 249,153.5C 254.37,162.228 260.703,170.228 268,177.5C 269.701,172.099 272.868,167.766 277.5,164.5C 279.429,169.118 281.262,173.784 283,178.5C 284.644,181.311 286.81,183.644 289.5,185.5C 290.469,179.708 292.969,174.708 297,170.5C 301.305,179.971 308.138,186.971 317.5,191.5C 319.291,185.764 318.291,180.597 314.5,176C 322.785,176.977 329.452,180.81 334.5,187.5C 337.547,181.968 336.547,177.134 331.5,173C 339.249,173.453 346.082,176.286 352,181.5C 352.318,177.295 350.818,173.795 347.5,171C 354.163,170.249 359.663,172.416 364,177.5C 364.125,172.253 361.959,168.087 357.5,165C 362.733,165.523 367.566,167.356 372,170.5C 372.667,172.167 372.667,173.833 372,175.5C 366.869,182.131 360.702,187.465 353.5,191.5 Z"/></g>
<g><path style="opacity:1" fill="#4b4d66" d="M 46.5,161.5 C 46.56,160.957 46.8933,160.624 47.5,160.5C 87.7974,178.991 130.131,188.491 174.5,189C 177.167,191.667 179.833,194.333 182.5,197C 133.893,197.166 88.56,185.333 46.5,161.5 Z"/></g>
<g><path style="opacity:1" fill="#4a4e68" d="M 236.5,171.5 C 246.107,192.156 262.107,204.99 284.5,210C 267.487,211.163 251.82,207.163 237.5,198C 240.199,198.438 242.865,198.272 245.5,197.5C 240.912,189.403 237.912,180.736 236.5,171.5 Z"/></g>
<g><path style="opacity:1" fill="#95d7ef" d="M 109.5,198.5 C 113.532,199.082 117.199,200.416 120.5,202.5C 121.948,227.376 130.114,249.709 145,269.5C 142.088,263.677 139.088,257.677 136,251.5C 128.857,235.928 125.024,219.595 124.5,202.5C 129.085,203.751 133.752,204.751 138.5,205.5C 138.423,219.886 139.257,234.219 141,248.5C 142.716,259.589 146.883,269.589 153.5,278.5C 153.167,278.833 152.833,279.167 152.5,279.5C 124.219,259.939 109.885,232.939 109.5,198.5 Z"/></g>
<g><path style="opacity:1" fill="#1a9dda" d="M 120.5,202.5 C 121.833,202.5 123.167,202.5 124.5,202.5C 125.024,219.595 128.857,235.928 136,251.5C 139.088,257.677 142.088,263.677 145,269.5C 130.114,249.709 121.948,227.376 120.5,202.5 Z"/></g>
<g><path style="opacity:1" fill="#0693d4" d="M 109.5,198.5 C 109.885,232.939 124.219,259.939 152.5,279.5C 152.833,279.167 153.167,278.833 153.5,278.5C 146.883,269.589 142.716,259.589 141,248.5C 139.257,234.219 138.423,219.886 138.5,205.5C 143.453,206.329 148.453,206.663 153.5,206.5C 148.05,227.534 148.217,248.534 154,269.5C 156,272.167 158,272.167 160,269.5C 163.333,261.5 166.667,253.5 170,245.5C 172.607,240.626 175.94,236.292 180,232.5C 178.316,238.112 177.482,243.945 177.5,250C 177.985,258.561 178.985,267.061 180.5,275.5C 180.712,278.011 180.045,280.178 178.5,282C 183.997,284.245 188.997,287.245 193.5,291C 205.989,303.084 220.323,312.417 236.5,319C 192.377,310.523 155.21,289.69 125,256.5C 110.505,239.167 103.005,219.167 102.5,196.5C 104.921,196.878 107.254,197.545 109.5,198.5 Z"/></g>
</svg>
