<?xml version="1.0" encoding="UTF-8"?>
<!DOCTYPE svg PUBLIC "-//W3C//DTD SVG 1.1//EN" "http://www.w3.org/Graphics/SVG/1.1/DTD/svg11.dtd">
<svg xmlns="http://www.w3.org/2000/svg" version="1.1" width="2067px" height="1358px" style="shape-rendering:geometricPrecision; text-rendering:geometricPrecision; image-rendering:optimizeQuality; fill-rule:evenodd; clip-rule:evenodd" xmlns:xlink="http://www.w3.org/1999/xlink">
<g><path style="opacity:1" fill="#4c4b62" d="M 673.5,1.5 C 738.416,1.78119 802.416,9.61452 865.5,25C 926.278,41.892 985.278,63.5587 1042.5,90C 1084.76,112.38 1126.93,134.88 1169,157.5C 1302.14,130.151 1436.64,113.984 1572.5,109C 1697.13,104.176 1821.8,103.176 1946.5,106C 1979.43,106.314 2010.43,113.981 2039.5,129C 2061.96,145.122 2068.46,166.289 2059,192.5C 2055.92,198.991 2052.59,205.325 2049,211.5C 2040.62,220.875 2032.62,230.542 2025,240.5C 1958.07,305.517 1884.57,361.684 1804.5,409C 1761.93,434.616 1717.27,455.95 1670.5,473C 1655.46,476.509 1640.46,480.176 1625.5,484C 1608.49,485.612 1591.49,487.278 1574.5,489C 1585.24,498.885 1588.41,510.718 1584,524.5C 1573.69,546.479 1559.86,565.979 1542.5,583C 1519.17,603.501 1494.84,622.667 1469.5,640.5C 1468.91,640.291 1468.41,639.957 1468,639.5C 1467.88,618.121 1466.88,596.788 1465,575.5C 1456.5,584 1448,592.5 1439.5,601C 1416.9,618.938 1393.73,636.104 1370,652.5C 1372.37,624.891 1374.04,597.224 1375,569.5C 1357.2,586.304 1339.7,603.471 1322.5,621C 1308.37,632.794 1294.54,644.961 1281,657.5C 1283.33,627.846 1285.33,598.179 1287,568.5C 1275.33,583.5 1263.67,598.5 1252,613.5C 1238.96,627.536 1226.29,641.87 1214,656.5C 1213.21,616.463 1211.54,576.463 1209,536.5C 1189.9,574.487 1173.57,613.487 1160,653.5C 1161.75,652.373 1163.59,651.373 1165.5,650.5C 1169.84,668.188 1174.34,685.855 1179,703.5C 1182.23,711.626 1185.73,719.626 1189.5,727.5C 1201.71,704.391 1216.38,683.058 1233.5,663.5C 1239.26,674.68 1244.76,686.013 1250,697.5C 1258.08,713.34 1267.41,728.34 1278,742.5C 1282,746.5 1286,750.5 1290,754.5C 1287.95,748.377 1285.28,742.377 1282,736.5C 1272.92,721.999 1264.08,707.333 1255.5,692.5C 1283.82,698.548 1311.65,706.881 1339,717.5C 1339.5,717.333 1340,717.167 1340.5,717C 1331.65,708.319 1322.99,699.486 1314.5,690.5C 1344.47,690.831 1374.13,694.164 1403.5,700.5C 1404.52,699.998 1404.69,699.332 1404,698.5C 1400.12,694.286 1396.62,689.786 1393.5,685C 1412.16,685.366 1430.83,685.7 1449.5,686C 1433.96,670.956 1418.29,656.123 1402.5,641.5C 1440.52,649.257 1478.18,659.09 1515.5,671C 1525.71,676.272 1536.04,681.272 1546.5,686C 1569.79,704.219 1577.29,727.719 1569,756.5C 1566.25,762.325 1563.25,767.992 1560,773.5C 1464.99,894.262 1340.15,957.762 1185.5,964C 1151.06,965.439 1116.72,964.105 1082.5,960C 1051.48,954.441 1020.48,948.774 989.5,943C 960.227,933.798 930.894,924.798 901.5,916C 872.833,903.333 844.167,890.667 815.5,878C 766.585,873.756 717.752,870.256 669,867.5C 654.158,907.875 645.658,949.541 643.5,992.5C 644.106,1022.66 646.606,1052.66 651,1082.5C 652.395,1083.81 653.395,1083.48 654,1081.5C 662.646,1057.89 672.646,1034.89 684,1012.5C 689.081,1003.34 694.415,994.335 700,985.5C 708.383,975.906 716.883,966.406 725.5,957C 735.167,950 744.833,943 754.5,936C 767.791,929.737 781.124,923.57 794.5,917.5C 790.134,930.005 784.634,942.338 778,954.5C 773,968.167 768,981.833 763,995.5C 760.892,1007.81 758.892,1020.15 757,1032.5C 756.956,1047.85 757.623,1063.18 759,1078.5C 762.325,1096.78 765.325,1115.12 768,1133.5C 768.575,1142.22 768.575,1150.89 768,1159.5C 799.855,1179.35 830.022,1201.51 858.5,1226C 876.106,1237.27 893.44,1248.94 910.5,1261C 947.197,1282.02 984.531,1302.02 1022.5,1321C 1040.83,1331.83 1059.17,1342.67 1077.5,1353.5C 1021.44,1351.18 966.109,1343.01 911.5,1329C 892.561,1322.8 873.561,1316.8 854.5,1311C 828.914,1300.14 803.248,1289.47 777.5,1279C 750.167,1264.67 722.833,1250.33 695.5,1236C 670.005,1218.75 644.338,1201.75 618.5,1185C 595.793,1165.29 572.793,1145.96 549.5,1127C 538.363,1114.86 526.863,1103.03 515,1091.5C 485.7,1057.85 460.7,1021.18 440,981.5C 421.808,942.736 410.141,902.07 405,859.5C 404.591,841.478 403.758,823.478 402.5,805.5C 315.83,775.328 233.163,736.828 154.5,690C 102.408,657.233 51.4084,622.9 1.5,587C 62.3063,599.628 123.306,611.628 184.5,623C 265.983,636.514 347.983,643.68 430.5,644.5C 439.743,618.345 450.91,593.011 464,568.5C 478,545.833 492,523.167 506,500.5C 516.05,488.118 525.717,475.451 535,462.5C 565.686,427.776 600.186,397.609 638.5,372C 658.667,351.833 678.833,331.667 699,311.5C 719.899,274.04 734.899,234.374 744,192.5C 744.635,181.481 745.468,170.481 746.5,159.5C 744.558,148.184 742.725,136.85 741,125.5C 736,114.833 731,104.167 726,93.5C 718.295,85.4633 710.961,77.13 704,68.5C 691.254,59.5432 678.42,50.7099 665.5,42C 641.674,29.5878 618.008,16.9212 594.5,4C 620.994,3.1235 647.327,2.29017 673.5,1.5 Z"/></g>
<g><path style="opacity:1" fill="#0095d7" d="M 677.5,24.5 C 748.473,22.9949 818.14,32.4949 886.5,53C 976.233,80.8711 1061.23,119.038 1141.5,167.5C 998.004,202.775 859.004,250.775 724.5,311.5C 732.447,293.901 740.28,275.901 748,257.5C 757.629,232.649 763.963,206.982 767,180.5C 772.244,117.826 748.744,69.326 696.5,35C 690.434,30.9681 684.101,27.4681 677.5,24.5 Z"/></g>
<g><path style="opacity:1" fill="#9bdaf0" d="M 772.5,68.5 C 828.429,74.3235 881.762,89.8235 932.5,115C 957.644,129.14 979.478,147.307 998,169.5C 1003.37,178.036 1008.53,186.703 1013.5,195.5C 964.934,212.579 916.268,228.579 867.5,243.5C 880.436,220.255 882.936,195.921 875,170.5C 869.137,155.775 862.471,141.442 855,127.5C 860.361,142.923 865.361,158.589 870,174.5C 873.36,193.277 873.026,211.944 869,230.5C 866.833,235.5 864.667,240.5 862.5,245.5C 842.962,253.624 823.296,261.458 803.5,269C 785.061,277.97 766.561,286.803 748,295.5C 746.743,295.15 746.409,294.483 747,293.5C 790.236,247.922 807.236,193.922 798,131.5C 795,121.167 792,110.833 789,100.5C 783.726,89.6154 778.226,78.9487 772.5,68.5 Z"/></g>
<g><path style="opacity:1" fill="#0095d7" d="M 563.5,652.5 C 587.086,613.391 615.086,577.557 647.5,545C 706.818,487.854 777.818,455.854 860.5,449C 877.245,448.637 893.912,448.304 910.5,448C 886.549,471.371 868.216,498.204 855.5,528.5C 882.103,504.725 909.436,481.892 937.5,460C 986.813,425.35 1040.81,400.35 1099.5,385C 1118.91,380.981 1138.24,376.648 1157.5,372C 1151.2,364.697 1144.53,357.697 1137.5,351C 1130.5,346.501 1122.83,344.334 1114.5,344.5C 1089.2,347.159 1064.53,352.659 1040.5,361C 1034.52,362.274 1028.52,363.441 1022.5,364.5C 1018.64,363.649 1016.14,361.315 1015,357.5C 1013.62,342.613 1016.62,328.613 1024,315.5C 1034.56,295.611 1049.72,280.445 1069.5,270C 1076.13,267.518 1082.8,267.184 1089.5,269C 1082.27,276.575 1077.11,285.408 1074,295.5C 1072,307.187 1076.5,315.354 1087.5,320C 1092.46,321.489 1097.46,322.822 1102.5,324C 1116.96,325.521 1131.46,326.354 1146,326.5C 1188.15,324.61 1230.32,323.776 1272.5,324C 1282.3,325.454 1292.13,326.621 1302,327.5C 1309.55,326.723 1317.05,325.556 1324.5,324C 1340.52,323.4 1356.52,323.734 1372.5,325C 1419.75,329.962 1467.09,333.962 1514.5,337C 1562.63,338.869 1610.63,337.203 1658.5,332C 1681.19,327.795 1703.86,323.462 1726.5,319C 1746.58,312.197 1766.58,305.197 1786.5,298C 1831.09,277.913 1875.42,257.247 1919.5,236C 1946.18,223.672 1970.85,208.339 1993.5,190C 2007.7,175.184 2005.04,164.517 1985.5,158C 1970.22,155.388 1954.88,153.054 1939.5,151C 1907.17,149.986 1874.84,149.653 1842.5,150C 1720.44,154.002 1598.44,159.336 1476.5,166C 1435.51,170.066 1394.51,174.066 1353.5,178C 1342.38,179.154 1331.71,181.821 1321.5,186C 1315.57,191.006 1315.57,196.339 1321.5,202C 1326.17,205.333 1330.83,208.667 1335.5,212C 1354.17,220.667 1372.83,229.333 1391.5,238C 1418.95,248.228 1446.29,258.728 1473.5,269.5C 1421.9,281.854 1370.23,294.021 1318.5,306C 1302.9,308.681 1287.23,310.848 1271.5,312.5C 1328.9,300.234 1385.9,285.901 1442.5,269.5C 1416.8,266.192 1391.46,261.026 1366.5,254C 1328.5,242.667 1290.5,231.333 1252.5,220C 1229.48,213.745 1206.15,209.078 1182.5,206C 1179.17,205.333 1175.83,205.333 1172.5,206C 1195.21,209.357 1216.55,216.691 1236.5,228C 1239.02,229.697 1241.35,231.53 1243.5,233.5C 1237.79,232.549 1232.13,231.382 1226.5,230C 1219.83,226.333 1213.17,222.667 1206.5,219C 1202.54,217.975 1198.54,217.141 1194.5,216.5C 1174.64,222.384 1156.31,231.218 1139.5,243C 1132.5,250.36 1131.84,249.693 1137.5,241C 1137.63,235.795 1135.3,232.128 1130.5,230C 1125.33,228.5 1120.17,227 1115,225.5C 1106.19,226.377 1097.35,227.21 1088.5,228C 987.059,249.147 889.393,281.48 795.5,325C 771.328,338.92 746.995,352.587 722.5,366C 701.833,380.667 681.167,395.333 660.5,410C 637.401,429.762 614.901,450.262 593,471.5C 578.667,487.833 564.333,504.167 550,520.5C 535,542.167 520,563.833 505,585.5C 493.076,609.018 480.909,632.351 468.5,655.5C 462.984,655.983 457.484,656.65 452,657.5C 451.167,657.167 450.333,656.833 449.5,656.5C 474.911,585.638 512.077,521.971 561,465.5C 592.388,431.752 627.555,402.919 666.5,379C 818.091,285.005 981.424,219.338 1156.5,182C 1269.99,157.647 1384.66,141.647 1500.5,134C 1591.4,127.837 1682.4,125.003 1773.5,125.5C 1833.85,125.414 1894.18,126.247 1954.5,128C 1977.68,129.378 2000.01,134.378 2021.5,143C 2038.04,150.906 2044.2,163.74 2040,181.5C 2034.25,195.334 2026.25,207.667 2016,218.5C 1923.71,310.76 1818.21,384.26 1699.5,439C 1659.98,456.381 1618.64,465.881 1575.5,467.5C 1550.74,465.928 1526.4,461.762 1502.5,455C 1466.23,443.465 1429.89,432.131 1393.5,421C 1326.94,403.562 1259.27,394.395 1190.5,393.5C 1134.88,392.125 1081.21,401.625 1029.5,422C 964.811,450.043 914.644,494.21 879,554.5C 899.297,532.717 923.797,517.717 952.5,509.5C 953.167,509.833 953.833,510.167 954.5,510.5C 915.654,588.956 905.654,670.956 924.5,756.5C 801.428,772.954 733.262,719.287 720,595.5C 718.124,574.211 717.124,552.878 717,531.5C 694.111,615.077 711.444,689.077 769,753.5C 821.564,808.54 885.397,843.374 960.5,858C 943.63,782.994 941.13,707.494 953,631.5C 961.628,580.566 981.295,534.566 1012,493.5C 1049.53,448.146 1097.7,422.313 1156.5,416C 1111.45,447.385 1074.28,486.219 1045,532.5C 1023.26,569.378 1011.43,609.211 1009.5,652C 1012.57,726.51 1046.23,782.176 1110.5,819C 1163.53,845.173 1219.53,855.173 1278.5,849C 1347.21,841.54 1412.54,822.54 1474.5,792C 1499.66,779.425 1524.33,766.425 1548.5,753C 1469.38,859.959 1363.38,921.959 1230.5,939C 1145.18,948.062 1061.18,941.062 978.5,918C 922.167,902.556 868.167,881.223 816.5,854C 654.237,851.514 497.571,820.847 346.5,762C 259.54,727.033 177.874,683.033 101.5,630C 187.973,647.543 275.306,659.21 363.5,665C 436.196,668.571 508.863,668.071 581.5,663.5C 581.256,660.737 579.923,658.571 577.5,657C 573.234,654.189 568.567,652.689 563.5,652.5 Z"/></g>
<g><path style="opacity:1" fill="#9bdaf0" d="M 563.5,652.5 C 552.654,652.403 541.821,652.737 531,653.5C 528.167,653.167 525.333,652.833 522.5,652.5C 522.863,651.817 523.196,651.15 523.5,650.5C 532.987,632.193 542.487,613.86 552,595.5C 563.333,579.5 574.667,563.5 586,547.5C 600.137,532.362 614.637,517.529 629.5,503C 645.343,491.912 661.01,480.578 676.5,469C 695.833,459.667 715.167,450.333 734.5,441C 755.167,435 775.833,429 796.5,423C 847.786,414.177 899.453,410.844 951.5,413C 964.833,400.667 978.167,388.333 991.5,376C 962.834,376.263 934.167,376.929 905.5,378C 876.103,381.866 846.77,386.2 817.5,391C 792.5,398.667 767.5,406.333 742.5,414C 710.662,427.581 680.662,444.247 652.5,464C 645.167,470 637.833,476 630.5,482C 613.667,499.5 596.833,517 580,534.5C 567.58,553.007 554.913,571.341 542,589.5C 531.55,610.066 521.384,630.732 511.5,651.5C 510.733,652.172 510.066,653.005 509.5,654C 497.861,655.135 486.194,655.969 474.5,656.5C 472.304,656.495 470.304,656.162 468.5,655.5C 480.909,632.351 493.076,609.018 505,585.5C 520,563.833 535,542.167 550,520.5C 564.333,504.167 578.667,487.833 593,471.5C 614.901,450.262 637.401,429.762 660.5,410C 681.167,395.333 701.833,380.667 722.5,366C 746.995,352.587 771.328,338.92 795.5,325C 889.393,281.48 987.059,249.147 1088.5,228C 1097.35,227.21 1106.19,226.377 1115,225.5C 1120.17,227 1125.33,228.5 1130.5,230C 1135.3,232.128 1137.63,235.795 1137.5,241C 1131.84,249.693 1132.5,250.36 1139.5,243C 1156.31,231.218 1174.64,222.384 1194.5,216.5C 1198.54,217.141 1202.54,217.975 1206.5,219C 1213.17,222.667 1219.83,226.333 1226.5,230C 1232.13,231.382 1237.79,232.549 1243.5,233.5C 1242.8,235.716 1241.46,237.549 1239.5,239C 1221.54,252.292 1208.04,269.126 1199,289.5C 1198.5,296.158 1198.33,302.825 1198.5,309.5C 1192.14,310.45 1185.8,311.616 1179.5,313C 1186.47,314.162 1193.47,314.996 1200.5,315.5C 1208.61,317.039 1216.94,317.706 1225.5,317.5C 1236.45,317.909 1247.11,316.909 1257.5,314.5C 1261.94,313.199 1266.61,312.532 1271.5,312.5C 1287.23,310.848 1302.9,308.681 1318.5,306C 1370.23,294.021 1421.9,281.854 1473.5,269.5C 1446.29,258.728 1418.95,248.228 1391.5,238C 1372.83,229.333 1354.17,220.667 1335.5,212C 1330.83,208.667 1326.17,205.333 1321.5,202C 1315.57,196.339 1315.57,191.006 1321.5,186C 1331.71,181.821 1342.38,179.154 1353.5,178C 1394.51,174.066 1435.51,170.066 1476.5,166C 1598.44,159.336 1720.44,154.002 1842.5,150C 1874.84,149.653 1907.17,149.986 1939.5,151C 1954.88,153.054 1970.22,155.388 1985.5,158C 2005.04,164.517 2007.7,175.184 1993.5,190C 1970.85,208.339 1946.18,223.672 1919.5,236C 1875.42,257.247 1831.09,277.913 1786.5,298C 1766.58,305.197 1746.58,312.197 1726.5,319C 1703.86,323.462 1681.19,327.795 1658.5,332C 1610.63,337.203 1562.63,338.869 1514.5,337C 1467.09,333.962 1419.75,329.962 1372.5,325C 1356.52,323.734 1340.52,323.4 1324.5,324C 1317.05,325.556 1309.55,326.723 1302,327.5C 1292.13,326.621 1282.3,325.454 1272.5,324C 1230.32,323.776 1188.15,324.61 1146,326.5C 1131.46,326.354 1116.96,325.521 1102.5,324C 1097.46,322.822 1092.46,321.489 1087.5,320C 1076.5,315.354 1072,307.187 1074,295.5C 1077.11,285.408 1082.27,276.575 1089.5,269C 1082.8,267.184 1076.13,267.518 1069.5,270C 1049.72,280.445 1034.56,295.611 1024,315.5C 1016.62,328.613 1013.62,342.613 1015,357.5C 1016.14,361.315 1018.64,363.649 1022.5,364.5C 1028.52,363.441 1034.52,362.274 1040.5,361C 1064.53,352.659 1089.2,347.159 1114.5,344.5C 1122.83,344.334 1130.5,346.501 1137.5,351C 1144.53,357.697 1151.2,364.697 1157.5,372C 1138.24,376.648 1118.91,380.981 1099.5,385C 1040.81,400.35 986.813,425.35 937.5,460C 909.436,481.892 882.103,504.725 855.5,528.5C 868.216,498.204 886.549,471.371 910.5,448C 893.912,448.304 877.245,448.637 860.5,449C 777.818,455.854 706.818,487.854 647.5,545C 615.086,577.557 587.086,613.391 563.5,652.5 Z"/></g>
<g><path style="opacity:1" fill="#4c4b62" d="M 1271.5,312.5 C 1266.61,312.532 1261.94,313.199 1257.5,314.5C 1238.52,316.284 1219.52,316.617 1200.5,315.5C 1198.46,304.515 1199.63,293.848 1204,283.5C 1210.07,270.601 1218.57,259.601 1229.5,250.5C 1214.29,267.598 1204.96,287.598 1201.5,310.5C 1204.22,312.111 1207.22,312.944 1210.5,313C 1227.14,315.38 1243.48,314.547 1259.5,310.5C 1279.32,307.507 1296.15,298.841 1310,284.5C 1317.44,272.353 1315.6,261.853 1304.5,253C 1300.39,250.279 1296.06,248.113 1291.5,246.5C 1285.03,242.95 1278.03,240.45 1270.5,239C 1262.48,237.155 1254.48,236.322 1246.5,236.5C 1246.5,234.5 1245.5,233.5 1243.5,233.5C 1241.35,231.53 1239.02,229.697 1236.5,228C 1216.55,216.691 1195.21,209.357 1172.5,206C 1175.83,205.333 1179.17,205.333 1182.5,206C 1206.15,209.078 1229.48,213.745 1252.5,220C 1290.5,231.333 1328.5,242.667 1366.5,254C 1391.46,261.026 1416.8,266.192 1442.5,269.5C 1385.9,285.901 1328.9,300.234 1271.5,312.5 Z"/></g>
<g><path style="opacity:1" fill="#238ecb" d="M 1243.5,233.5 C 1245.5,233.5 1246.5,234.5 1246.5,236.5C 1240.86,241.137 1235.19,245.803 1229.5,250.5C 1218.57,259.601 1210.07,270.601 1204,283.5C 1199.63,293.848 1198.46,304.515 1200.5,315.5C 1193.47,314.996 1186.47,314.162 1179.5,313C 1185.8,311.616 1192.14,310.45 1198.5,309.5C 1198.33,302.825 1198.5,296.158 1199,289.5C 1208.04,269.126 1221.54,252.292 1239.5,239C 1241.46,237.549 1242.8,235.716 1243.5,233.5 Z"/></g>
<g><path style="opacity:1" fill="#fdfdfd" d="M 1291.5,246.5 C 1283.18,251.316 1276.68,257.983 1272,266.5C 1264.1,280.114 1259.93,294.78 1259.5,310.5C 1243.48,314.547 1227.14,315.38 1210.5,313C 1207.22,312.944 1204.22,312.111 1201.5,310.5C 1204.96,287.598 1214.29,267.598 1229.5,250.5C 1235.19,245.803 1240.86,241.137 1246.5,236.5C 1254.48,236.322 1262.48,237.155 1270.5,239C 1278.03,240.45 1285.03,242.95 1291.5,246.5 Z"/></g>
<g><path style="opacity:1" fill="#020202" d="M 1291.5,246.5 C 1296.06,248.113 1300.39,250.279 1304.5,253C 1315.6,261.853 1317.44,272.353 1310,284.5C 1296.15,298.841 1279.32,307.507 1259.5,310.5C 1259.93,294.78 1264.1,280.114 1272,266.5C 1276.68,257.983 1283.18,251.316 1291.5,246.5 Z"/></g>
<g><path style="opacity:1" fill="#0493d3" d="M 1257.5,314.5 C 1247.11,316.909 1236.45,317.909 1225.5,317.5C 1216.94,317.706 1208.61,317.039 1200.5,315.5C 1219.52,316.617 1238.52,316.284 1257.5,314.5 Z"/></g>
<g><path style="opacity:1" fill="#0095d7" d="M 523.5,650.5 C 519.519,651.021 515.519,651.354 511.5,651.5C 521.384,630.732 531.55,610.066 542,589.5C 554.913,571.341 567.58,553.007 580,534.5C 596.833,517 613.667,499.5 630.5,482C 637.833,476 645.167,470 652.5,464C 680.662,444.247 710.662,427.581 742.5,414C 767.5,406.333 792.5,398.667 817.5,391C 846.77,386.2 876.103,381.866 905.5,378C 934.167,376.929 962.834,376.263 991.5,376C 978.167,388.333 964.833,400.667 951.5,413C 899.453,410.844 847.786,414.177 796.5,423C 775.833,429 755.167,435 734.5,441C 715.167,450.333 695.833,459.667 676.5,469C 661.01,480.578 645.343,491.912 629.5,503C 614.637,517.529 600.137,532.362 586,547.5C 574.667,563.5 563.333,579.5 552,595.5C 542.487,613.86 532.987,632.193 523.5,650.5 Z"/></g>
<g><path style="opacity:1" fill="#fefefe" d="M 1235.5,599.5 C 1234.83,592.167 1234.17,584.833 1233.5,577.5C 1233.24,543.335 1229.07,509.668 1221,476.5C 1192.84,517.148 1170.17,560.815 1153,607.5C 1137.12,574.637 1127.45,539.971 1124,503.5C 1122.63,489.852 1121.96,476.186 1122,462.5C 1138.41,445.225 1156.91,430.725 1177.5,419C 1188.78,413.944 1200.61,411.444 1213,411.5C 1265.03,413.218 1316.19,420.718 1366.5,434C 1425.14,450.881 1482.81,470.548 1539.5,493C 1547.69,496.011 1555.19,500.178 1562,505.5C 1565.16,511.107 1565.16,516.774 1562,522.5C 1543.2,553.135 1519.03,578.801 1489.5,599.5C 1487.8,581.46 1485.63,563.46 1483,545.5C 1481.82,537.285 1479.82,529.285 1477,521.5C 1464.63,544.554 1448.47,564.72 1428.5,582C 1417.86,590.984 1406.86,599.484 1395.5,607.5C 1395.17,607 1394.83,606.5 1394.5,606C 1398.63,574.156 1398.46,542.323 1394,510.5C 1369.31,545.867 1340.31,577.534 1307,605.5C 1307.78,587.297 1308.62,569.13 1309.5,551C 1308.68,538.891 1307.85,526.725 1307,514.5C 1306.57,508.043 1305.57,501.71 1304,495.5C 1286.05,533.571 1263.22,568.237 1235.5,599.5 Z"/></g>
<g><path style="opacity:1" fill="#b2b0bd" d="M 1233.5,577.5 C 1234.17,584.833 1234.83,592.167 1235.5,599.5C 1235.44,600.043 1235.11,600.376 1234.5,600.5C 1233.5,592.862 1233.17,585.196 1233.5,577.5 Z"/></g>
<g><path style="opacity:1" fill="#fdfdfd" d="M 1029.5,633.5 C 1031.07,633.937 1032.24,634.937 1033,636.5C 1053.3,674.147 1078.96,707.814 1110,737.5C 1115.36,712.829 1129.03,694.496 1151,682.5C 1155,701.178 1161,719.178 1169,736.5C 1177.25,751.742 1188.58,764.075 1203,773.5C 1202.36,754.746 1207.02,737.413 1217,721.5C 1220.61,715.556 1224.61,709.889 1229,704.5C 1238.42,724.357 1250.09,742.69 1264,759.5C 1277.47,775.567 1294.14,786.901 1314,793.5C 1315.11,793.415 1316.11,793.081 1317,792.5C 1318.83,777.087 1317.17,762.087 1312,747.5C 1308.32,740.477 1304.98,733.477 1302,726.5C 1323.93,732.381 1344.09,741.881 1362.5,755C 1371.23,762.055 1378.06,770.555 1383,780.5C 1393.95,764.815 1394.29,748.815 1384,732.5C 1379.28,726.706 1375.11,721.04 1371.5,715.5C 1404.19,718.685 1432.53,731.352 1456.5,753.5C 1457.47,742.719 1454.97,732.719 1449,723.5C 1445.87,718.074 1442.37,712.907 1438.5,708C 1465.48,707.082 1488.32,716.249 1507,735.5C 1507.76,726.087 1505.42,717.42 1500,709.5C 1493.67,699.157 1485.83,689.99 1476.5,682C 1498.96,686.476 1519.79,694.976 1539,707.5C 1542.24,711.64 1543.24,716.306 1542,721.5C 1540.03,727.449 1537.03,732.783 1533,737.5C 1500.18,773.339 1460.35,798.172 1413.5,812C 1315.55,840.607 1219.21,835.94 1124.5,798C 1103.57,788.537 1083.57,777.537 1064.5,765C 1044.86,748.889 1033.69,728.055 1031,702.5C 1025.81,679.574 1025.31,656.574 1029.5,633.5 Z"/></g>
<g><path style="opacity:1" fill="#4c4b62" d="M 181.5,660.5 C 208.857,671.48 236.523,682.646 264.5,694C 364.947,733.029 468.614,759.695 575.5,774C 624.646,780.054 673.98,783.054 723.5,783C 734.47,794.971 745.804,806.638 757.5,818C 631.691,817.609 509.024,797.942 389.5,759C 316.352,733.923 247.018,701.089 181.5,660.5 Z"/></g>
<g><path style="opacity:1" fill="#4c4b62" d="M 979.5,709.5 C 1009.52,780.023 1060.19,829.523 1131.5,858C 1146.68,863.338 1162.01,868.171 1177.5,872.5C 1105.36,876.716 1039.36,858.883 979.5,819C 978.04,818.189 977.707,817.355 978.5,816.5C 990.27,819.4 1002.1,822.067 1014,824.5C 1014.83,824.167 1015.67,823.833 1016.5,823.5C 996.557,788.004 984.224,750.004 979.5,709.5 Z"/></g>
<g><path style="opacity:1" fill="#0195d7" d="M 454.5,823.5 C 452.656,907.119 475.49,983.119 523,1051.5C 553.98,1092.98 590.147,1129.31 631.5,1160.5C 631.833,1160.33 632.167,1160.17 632.5,1160C 615.333,1137.5 598.167,1115 581,1092.5C 530.253,1015.22 503.419,930.216 500.5,837.5C 504.894,838.349 509.228,839.349 513.5,840.5C 519.232,929.105 543.732,1012.1 587,1089.5C 600.667,1110.17 614.333,1130.83 628,1151.5C 630.391,1154.6 633.224,1156.76 636.5,1158C 612.637,1125.43 596.47,1089.26 588,1049.5C 586.205,1040.86 584.538,1032.19 583,1023.5C 576.381,966.314 572.214,908.981 570.5,851.5C 593.035,855.028 615.702,857.861 638.5,860C 629.601,878.142 624.101,897.309 622,917.5C 619.114,940.073 617.947,962.74 618.5,985.5C 617.296,1025.1 621.463,1064.1 631,1102.5C 633.49,1110.98 637.657,1118.48 643.5,1125C 648.843,1128.02 653.843,1127.35 658.5,1123C 664.211,1115.75 669.044,1107.92 673,1099.5C 681.373,1072.38 691.707,1046.04 704,1020.5C 715.874,997.617 731.208,977.283 750,959.5C 735.693,992.311 730.693,1026.64 735,1062.5C 737.693,1084.99 741.36,1107.33 746,1129.5C 747.902,1139.85 747.902,1150.19 746,1160.5C 744.262,1164.24 741.762,1167.41 738.5,1170C 754.352,1175.92 769.019,1183.92 782.5,1194C 808.453,1213.62 834.12,1233.62 859.5,1254C 887.982,1275.44 918.315,1294.11 950.5,1310C 965.18,1316.51 980.18,1322.17 995.5,1327C 855.519,1299.82 729.186,1243.16 616.5,1157C 571.887,1121.39 532.387,1080.89 498,1035.5C 466.588,992.333 444.588,944.667 432,892.5C 426.009,866.13 423.842,839.463 425.5,812.5C 435.273,815.979 444.94,819.645 454.5,823.5 Z"/></g>
<g><path style="opacity:1" fill="#9bdaf0" d="M 500.5,837.5 C 503.419,930.216 530.253,1015.22 581,1092.5C 598.167,1115 615.333,1137.5 632.5,1160C 632.167,1160.17 631.833,1160.33 631.5,1160.5C 590.147,1129.31 553.98,1092.98 523,1051.5C 475.49,983.119 452.656,907.119 454.5,823.5C 469.881,827.191 485.214,831.858 500.5,837.5 Z"/></g>
<g><path style="opacity:1" fill="#9bdaf0" d="M 513.5,840.5 C 532.58,843.783 551.58,847.449 570.5,851.5C 572.214,908.981 576.381,966.314 583,1023.5C 584.538,1032.19 586.205,1040.86 588,1049.5C 596.47,1089.26 612.637,1125.43 636.5,1158C 633.224,1156.76 630.391,1154.6 628,1151.5C 614.333,1130.83 600.667,1110.17 587,1089.5C 543.732,1012.1 519.232,929.105 513.5,840.5 Z"/></g>
</svg>
